#!OML:ASF F:\VICON\USERDATA\INSTALL\rory3\rory3.ASF
:FULLY-SPECIFIED
:DEGREES
72
root 1.3906411314428118 17.901224291722883 54.10903486847728 -3.561816838141065 1.10131313011206 0.4314863605601391
lfemur 9.129143853872327 -3.9280552030087907 -25.13765560907774
ltibia 20.087076936795114
lfoot -3.2119031253860206 -7.213155543913594
ltoes -11.754866986344993
rfemur -26.84629473935815 -0.7815737956633413 21.665940574688985
rtibia 46.18279131591808
rfoot -10.36848987159997 -6.556446896814769
rtoes -1.6367520827221873
lowerback nan -1.6488792217312267 -2.511575338824855
upperback -0.2508606006922662 -2.3839106664338017 1.6295673784267826
thorax -5.964389898307188 -1.1001835963808377 3.81434564035491
lowerneck -17.04814671116097 -3.3957646962062498 -1.8733316086981362
upperneck 21.65456274457386 -4.571572216542748 2.1012269995465784
head 9.8299497036882 -2.0810298471572057 0.4650492802135119
lclavicle -2.5577344953510567e-15 -2.7551983032265825e-15
lhumerus -24.641497472823758 -2.1591641230147265 80.91537781586734
lradius 30.081221644718582
lwrist 8.04627602690101
lhand -29.698439780164097 18.72501032779256
lfingers nan
lthumb -2.716657946110046 49.35032326293653
rclavicle -2.5365819608091586e-15 -2.731815792978748e-15
rhumerus -33.55829050586239 -21.127897230773087 -78.7825901511767
rradius 30.43302122376918
rwrist 0.11031297791664274
rhand -17.490329791330733 nan
rfingers nan
rthumb 8.743286259084602 -7.335304194574753
73
root 1.438936037063116 17.91818788449949 54.38401395733523 -3.4481307395259453 0.901331959953908 0.6151403982761012
lfemur 11.264125094828431 -4.065124887751086 -25.299462305174092
ltibia 19.92573537413201
lfoot -2.4646048068933775 -8.106402658974467
ltoes -9.832413253195284
rfemur -26.811447020338022 -0.899613828346713 21.56354240698814
rtibia 41.27478795103786
rfoot -10.700652345194852 -6.395142865641499
rtoes -2.781152499715698
lowerback nan -1.8691657641824906 -2.6701647669757573
upperback -0.32683778265166413 -2.6186579223170336 1.8067237668976144
thorax -5.911092388843782 -1.2137360191549427 4.076763039397909
lowerneck -16.964428935944007 -3.3129857462987005 -1.9959307836471165
upperneck 21.837279920082704 -4.401761107094365 1.9258656951373174
head 9.878330894708949 -2.0252056257174726 0.44342963287331033
lclavicle -2.5559782014652962e-15 -2.7528474267029048e-15
lhumerus -25.009626448923235 -2.2507245479699622 81.0462012344924
lradius 29.284391153323035
lwrist 8.22342954647161
lhand -29.6834660828005 18.827960961378828
lfingers nan
lthumb -2.7192914899289855 49.39696168117891
rclavicle -2.533227002803622e-15 -2.7267576328730103e-15
rhumerus -34.121058658361164 -21.888445562926112 -78.52984271336751
rradius 30.684442190259134
rwrist 0.724154863001436
rhand -17.45112981575426 nan
rfingers nan
rthumb 8.778783377704867 -7.094002518639544
74
root 1.4945576394592706 17.93783947116987 55.74822000984419 -3.2411108549285887 0.9209429916155638 0.6723438427100259
lfemur 12.43732425407776 -4.30677061215512 -25.309330000653535
ltibia 21.009944068248934
lfoot -2.0026892141558346 -7.693757969183629
ltoes -9.284421713603821
rfemur -25.917110887031438 -0.9866552322579714 21.891469527361306
rtibia 36.48631493817207
rfoot -11.067745584279024 -6.70480228863294
rtoes -3.452521021102773
lowerback nan -2.105204173801992 -2.6799044624267836
upperback -0.4100462359401459 -2.890832822573307 1.9288039729680158
thorax -5.89779743831052 -1.3416252363266943 4.275302907436428
lowerneck -16.875479886888748 -3.243341421935849 -2.0952766001314145
upperneck 22.003046929984308 -4.253291923253853 1.7400230533765044
head 9.921845395292435 -1.9780051432423276 0.41104332831513896
lclavicle -2.5553421614285125e-15 -2.751630584646659e-15
lhumerus -25.46014364726015 -2.29983029790415 81.23261118062204
lradius 28.223035558118895
lwrist 8.387614132942751
lhand -29.717099965659486 18.76290407121543
lfingers nan
lthumb -2.724407707720095 49.34765627350725
rclavicle -2.531498366141536e-15 -2.7236938912471398e-15
rhumerus -34.609337871558985 -22.561539549971812 -78.21189467670155
rradius 30.952545115947586
rwrist 1.7512222370637214
rhand -17.421818739559814 nan
rfingers nan
rthumb 8.840036025653449 -6.808317218889001
75
root 1.5402554781005302 17.94857234124544 56.3369054096635 -3.2390719129278884 0.812100699845524 0.9167418951898454
lfemur 13.112179399204136 -4.40653580738627 -25.3031328728389
ltibia 23.13389600676588
lfoot -1.8579109108301184 -7.4572846692196
ltoes -8.340530542910217
rfemur -25.233132756470987 -1.0889228105818733 21.92521364463618
rtibia 32.549259581689746
rfoot -11.391073955647496 -7.6267440059763425
rtoes -3.472949636056346
lowerback nan -2.2288034778455392 -2.805861122219313
upperback -0.4111308381423391 -3.0674205686251796 1.93566137222399
thorax -5.832146878162144 -1.4155818347198958 4.4573056356683685
lowerneck -16.814951482006784 -3.1992415709872555 -2.166691706763727
upperneck 22.11966402549794 -4.148241558349613 1.5785949996031508
head 9.950932768708933 -1.9468744673693252 0.376418458711996
lclavicle -2.5565263755944525e-15 -2.751794435465686e-15
lhumerus -25.93159660338712 -2.2022977505434995 81.4734128190455
lradius 26.95211915916599
lwrist 8.617663020803647
lhand -29.693525837128753 18.799524140849766
lfingers nan
lthumb -2.7537813278205583 49.18385429995911
rclavicle -2.5294916916207275e-15 -2.7210861091842083e-15
rhumerus -34.97530068090617 -23.103233501341517 -77.83844569937007
rradius 31.21318334178126
rwrist 2.9822944036363817
rhand -17.423978628091515 nan
rfingers nan
rthumb 8.831207385117127 -6.798736133470874
